<svg width="24" height="24" viewBox="0 0 24 24" fill="none" xmlns="http://www.w3.org/2000/svg">
<path fill-rule="evenodd" clip-rule="evenodd" d="M18.7187 13.4002L20.5187 15.2102C20.9809 15.6801 21.1168 16.3812 20.8638 16.9898C20.6107 17.5985 20.0178 17.9965 19.3587 18.0002H15.9987V18.3402C15.9014 20.4539 14.1126 22.0906 11.9987 22.0002C9.88467 22.0906 8.0959 20.4539 7.99865 18.3402V18.0002H4.63865C3.97949 17.9965 3.38659 17.5985 3.13353 16.9898C2.88047 16.3812 3.01641 15.6801 3.47865 15.2102L5.27865 13.4002V8.73018C5.28219 6.79135 6.12049 4.94794 7.57938 3.67094C9.03826 2.39394 10.9764 1.80703 12.8987 2.06018C16.2841 2.57906 18.7682 5.51552 18.7187 8.94018V13.4002ZM11.9987 20.0002C13.0021 20.071 13.8834 19.3395 13.9987 18.3402V18.0002H9.99865V18.3402C10.1139 19.3395 10.9952 20.071 11.9987 20.0002Z" fill="#333533"/>
</svg>

