<svg width="24" height="24" viewBox="0 0 24 24" fill="none" xmlns="http://www.w3.org/2000/svg">
<rect width="24" height="24" fill="white"/>
<path d="M15 17H9C8.73478 17 8.48043 17.1054 8.29289 17.2929C8.10536 17.4804 8 17.7348 8 18C8 19.0609 8.42143 20.0783 9.17157 20.8284C9.92172 21.5786 10.9391 22 12 22C13.0609 22 14.0783 21.5786 14.8284 20.8284C15.5786 20.0783 16 19.0609 16 18C16 17.7348 15.8946 17.4804 15.7071 17.2929C15.5196 17.1054 15.2652 17 15 17Z" fill="#637381"/>
<path d="M20.0905 13.67L19.0005 12.59V9C19.0005 7.14348 18.263 5.36301 16.9502 4.05025C15.6375 2.7375 13.857 2 12.0005 2C10.144 2 8.36348 2.7375 7.05072 4.05025C5.73797 5.36301 5.00047 7.14348 5.00047 9V12.59L3.91047 13.67C3.47744 14.1082 3.18335 14.6645 3.06507 15.2691C2.94678 15.8737 3.00956 16.4998 3.24552 17.0689C3.48149 17.638 3.88016 18.1248 4.39157 18.4683C4.90298 18.8118 5.5044 18.9968 6.12047 19H17.8805C18.4965 18.9968 19.098 18.8118 19.6094 18.4683C20.1208 18.1248 20.5194 17.638 20.7554 17.0689C20.9914 16.4998 21.0542 15.8737 20.9359 15.2691C20.8176 14.6645 20.5235 14.1082 20.0905 13.67Z" fill="#CDD2D7"/>
</svg>
