<svg width="24" height="24" viewBox="0 0 24 24" fill="none" xmlns="http://www.w3.org/2000/svg">
<rect width="24" height="24" fill="white"/>
<path d="M20.8897 9.78H20.2397C20.02 9.76435 19.8092 9.68644 19.6322 9.55539C19.4551 9.42435 19.319 9.24558 19.2397 9.04V9C19.1448 8.79234 19.115 8.5608 19.1543 8.33588C19.1936 8.11096 19.3001 7.90321 19.4597 7.74L19.9197 7.28C20.1262 7.06886 20.2418 6.7853 20.2418 6.49C20.2418 6.19471 20.1262 5.91114 19.9197 5.7L18.2897 4.14C18.0786 3.93356 17.795 3.81796 17.4997 3.81796C17.2044 3.81796 16.9209 3.93356 16.7097 4.14L16.2497 4.6C16.0874 4.75762 15.8814 4.86285 15.6585 4.90208C15.4357 4.9413 15.2062 4.91271 14.9997 4.82C14.7942 4.74079 14.6154 4.60468 14.4844 4.42759C14.3533 4.2505 14.2754 4.03975 14.2597 3.82V3.11C14.2598 2.96081 14.2299 2.81313 14.1716 2.67578C14.1133 2.53843 14.028 2.41424 13.9206 2.31063C13.8133 2.20701 13.6861 2.1261 13.5468 2.07273C13.4075 2.01936 13.2588 1.99463 13.1097 2H10.8897C10.5954 2 10.313 2.11695 10.1049 2.32512C9.89669 2.53328 9.77974 2.81561 9.77974 3.11V3.76C9.76409 3.97975 9.68618 4.1905 9.55513 4.36759C9.42409 4.54468 9.24532 4.68079 9.03974 4.76H8.99974C8.79906 4.86049 8.57299 4.89893 8.35037 4.87043C8.12775 4.84194 7.91865 4.74779 7.74974 4.6L7.28974 4.14C7.0786 3.93356 6.79504 3.81796 6.49974 3.81796C6.20445 3.81796 5.92088 3.93356 5.70974 4.14L4.13974 5.71C3.9333 5.92114 3.8177 6.20471 3.8177 6.5C3.8177 6.7953 3.9333 7.07886 4.13974 7.29L4.59974 7.75C4.75736 7.91238 4.86259 8.11833 4.90182 8.3412C4.94104 8.56406 4.91245 8.79357 4.81974 9C4.74054 9.20558 4.60442 9.38435 4.42733 9.51539C4.25024 9.64644 4.03949 9.72435 3.81974 9.74H3.10974C2.96055 9.73991 2.81287 9.76989 2.67552 9.82816C2.53817 9.88642 2.41398 9.97178 2.31037 10.0791C2.20675 10.1865 2.12585 10.3136 2.07247 10.4529C2.0191 10.5923 1.99437 10.7409 1.99974 10.89V13.11C1.99974 13.4044 2.11669 13.6867 2.32486 13.8949C2.53302 14.1031 2.81535 14.22 3.10974 14.22H3.75974C3.97949 14.2357 4.19024 14.3136 4.36733 14.4446C4.54442 14.5757 4.68054 14.7544 4.75974 14.96C4.85466 15.1677 4.88445 15.3992 4.84518 15.6241C4.8059 15.849 4.69942 16.0568 4.53974 16.22L4.07974 16.68C3.8733 16.8911 3.7577 17.1747 3.7577 17.47C3.7577 17.7653 3.8733 18.0489 4.07974 18.26L5.64974 19.83C5.86088 20.0364 6.14445 20.152 6.43974 20.152C6.73504 20.152 7.0186 20.0364 7.22974 19.83L7.68974 19.37C7.86039 19.2046 8.07883 19.0972 8.31401 19.0631C8.54919 19.029 8.78914 19.0699 8.99974 19.18C9.20532 19.2592 9.38409 19.3953 9.51513 19.5724C9.64618 19.7495 9.72409 19.9603 9.73974 20.18V20.83C9.73129 20.9842 9.75509 21.1384 9.80962 21.2828C9.86416 21.4273 9.94822 21.5588 10.0565 21.6689C10.1647 21.779 10.2947 21.8653 10.4382 21.9223C10.5817 21.9793 10.7355 22.0058 10.8897 22H13.1097C13.4041 22 13.6865 21.8831 13.8946 21.6749C14.1028 21.4667 14.2197 21.1844 14.2197 20.89V20.24C14.2354 20.0203 14.3133 19.8095 14.4444 19.6324C14.5754 19.4553 14.7542 19.3192 14.9597 19.24C15.1674 19.1451 15.3989 19.1153 15.6239 19.1546C15.8488 19.1938 16.0565 19.3003 16.2197 19.46L16.6797 19.92C16.8909 20.1264 17.1744 20.242 17.4697 20.242C17.765 20.242 18.0486 20.1264 18.2597 19.92L19.8297 18.35C20.0362 18.1389 20.1518 17.8553 20.1518 17.56C20.1518 17.2647 20.0362 16.9811 19.8297 16.77L19.3697 16.31C19.2043 16.1394 19.097 15.9209 19.0628 15.6857C19.0287 15.4506 19.0696 15.2106 19.1797 15C19.259 14.7944 19.3951 14.6157 19.5722 14.4846C19.7492 14.3536 19.96 14.2757 20.1797 14.26H20.8297C20.9839 14.2685 21.1381 14.2447 21.2826 14.1901C21.427 14.1356 21.5585 14.0515 21.6686 13.9433C21.7787 13.8351 21.8651 13.7051 21.9221 13.5616C21.9791 13.4181 22.0055 13.2643 21.9997 13.11V10.89C21.9997 10.5956 21.8828 10.3133 21.6746 10.1051C21.4665 9.89695 21.1841 9.78 20.8897 9.78Z" fill="#CDD2D7"/>
<path d="M12 16C14.2091 16 16 14.2091 16 12C16 9.79086 14.2091 8 12 8C9.79086 8 8 9.79086 8 12C8 14.2091 9.79086 16 12 16Z" fill="#637381"/>
</svg>
